<?xml version="1.0" encoding="UTF-8" standalone="no"?>
<svg
   xmlns:dc="http://purl.org/dc/elements/1.1/"
   xmlns:cc="http://creativecommons.org/ns#"
   xmlns:rdf="http://www.w3.org/1999/02/22-rdf-syntax-ns#"
   xmlns:svg="http://www.w3.org/2000/svg"
   xmlns="http://www.w3.org/2000/svg"
   xmlns:xlink="http://www.w3.org/1999/xlink"
   xmlns:sodipodi="http://sodipodi.sourceforge.net/DTD/sodipodi-0.dtd"
   xmlns:inkscape="http://www.inkscape.org/namespaces/inkscape"
   viewBox="0 0 1366 768.00003"
   version="1.1"
   id="svg289"
   sodipodi:docname="BGFINAL.svg"
   width="1366"
   height="768"
   inkscape:version="0.92.4 (unknown)"
   inkscape:export-filename="/media/yumna/Data/Doing/Web Tea Linux/hero.png"
   inkscape:export-xdpi="300"
   inkscape:export-ydpi="300">
  <metadata
     id="metadata293">
    <rdf:RDF>
      <cc:Work
         rdf:about="">
        <dc:format>image/svg+xml</dc:format>
        <dc:type
           rdf:resource="http://purl.org/dc/dcmitype/StillImage" />
        <dc:title>BGFINAL</dc:title>
      </cc:Work>
    </rdf:RDF>
  </metadata>
  <sodipodi:namedview
     pagecolor="#ffffff"
     bordercolor="#666666"
     borderopacity="1"
     objecttolerance="10"
     gridtolerance="10"
     guidetolerance="10"
     inkscape:pageopacity="0"
     inkscape:pageshadow="2"
     inkscape:window-width="1366"
     inkscape:window-height="719"
     id="namedview291"
     showgrid="false"
     inkscape:zoom="0.40183662"
     inkscape:cx="480.66281"
     inkscape:cy="546.21732"
     inkscape:window-x="0"
     inkscape:window-y="25"
     inkscape:window-maximized="1"
     inkscape:current-layer="svg289" />
  <defs
     id="defs190">
    <style
       id="style2">.cls-1{fill:url(#linear-gradient);}.cls-2{fill:url(#linear-gradient-2);}.cls-3{fill:url(#linear-gradient-3);}.cls-4{fill:url(#linear-gradient-4);}.cls-10,.cls-11,.cls-12,.cls-13,.cls-17,.cls-31,.cls-32,.cls-34,.cls-5,.cls-6,.cls-8,.cls-9{isolation:isolate;}.cls-5{fill:url(#linear-gradient-5);}.cls-6{fill:url(#radial-gradient);}.cls-7{fill:url(#linear-gradient-6);}.cls-8{fill:url(#linear-gradient-7);}.cls-9{fill:url(#linear-gradient-8);}.cls-10{fill:url(#linear-gradient-9);}.cls-11{fill:url(#linear-gradient-10);}.cls-12{fill:url(#linear-gradient-11);}.cls-13{fill:url(#linear-gradient-12);}.cls-14{fill:url(#linear-gradient-13);}.cls-15{fill:url(#linear-gradient-14);}.cls-16{clip-path:url(#clip-path);}.cls-18{fill:url(#linear-gradient-16);}.cls-19{clip-path:url(#clip-path-2);}.cls-20{fill:url(#linear-gradient-19);}.cls-21{fill:url(#linear-gradient-20);}.cls-22{fill:url(#linear-gradient-21);}.cls-23{fill:url(#linear-gradient-22);}.cls-24{fill:url(#linear-gradient-23);}.cls-25{fill:#1c1b1b;}.cls-26{fill:url(#linear-gradient-24);}.cls-27{fill:url(#linear-gradient-25);}.cls-28{fill:url(#linear-gradient-26);}.cls-29{fill:url(#linear-gradient-27);}.cls-30{fill:url(#linear-gradient-28);}.cls-31{fill:url(#radial-gradient-2);}.cls-32{fill:url(#linear-gradient-29);}.cls-33{fill:#565656;}.cls-34{fill:url(#linear-gradient-30);}.cls-35{fill:url(#linear-gradient-31);}.cls-36{fill:url(#linear-gradient-32);}.cls-37{fill:url(#linear-gradient-33);}.cls-38{fill:url(#linear-gradient-34);}.cls-39{fill:url(#linear-gradient-35);}.cls-40{fill:url(#linear-gradient-36);}.cls-41{fill:url(#linear-gradient-37);}.cls-42{fill:url(#linear-gradient-38);}.cls-43{fill:url(#linear-gradient-39);}.cls-44{fill:url(#linear-gradient-40);}.cls-45{fill:url(#linear-gradient-41);}</style>
    <linearGradient
       id="linear-gradient"
       x1="528.82001"
       y1="161.57001"
       x2="592.04999"
       y2="161.57001"
       gradientUnits="userSpaceOnUse">
      <stop
         offset="0"
         stop-color="#71cc25"
         id="stop4" />
      <stop
         offset="0"
         stop-color="#8bd54d"
         id="stop6" />
      <stop
         offset="0"
         stop-color="#ccedb0"
         id="stop8" />
      <stop
         offset="0"
         stop-color="#fff"
         id="stop10" />
      <stop
         offset="0"
         stop-color="#666"
         id="stop12" />
      <stop
         offset="0"
         stop-color="#7bdb35"
         id="stop14" />
      <stop
         offset="0"
         stop-color="#71cc25"
         id="stop16" />
      <stop
         offset="0.56"
         stop-color="#96e455"
         id="stop18" />
      <stop
         offset="0.7"
         stop-color="#a0eb62"
         id="stop20" />
    </linearGradient>
    <linearGradient
       id="linear-gradient-2"
       x1="438.25"
       y1="193.74001"
       x2="571.98999"
       y2="425.39999"
       gradientUnits="userSpaceOnUse">
      <stop
         offset="0"
         stop-color="#71cc25"
         id="stop23" />
      <stop
         offset="0"
         stop-color="#8bd54d"
         id="stop25" />
      <stop
         offset="0"
         stop-color="#ccedb0"
         id="stop27" />
      <stop
         offset="0"
         stop-color="#fff"
         id="stop29" />
      <stop
         offset="0"
         stop-color="#666"
         id="stop31" />
      <stop
         offset="0"
         stop-color="#7bdb35"
         id="stop33" />
      <stop
         offset="0"
         stop-color="#a0eb62"
         id="stop35" />
      <stop
         offset="0.94"
         stop-color="#74ce29"
         id="stop37" />
      <stop
         offset="1"
         stop-color="#71cc25"
         id="stop39" />
    </linearGradient>
    <linearGradient
       id="linear-gradient-3"
       x1="1441.08"
       y1="2528.1799"
       x2="1563.24"
       y2="2375.47"
       gradientTransform="matrix(3.78,0,0,-3.78,-5023.82,9594.98)"
       gradientUnits="userSpaceOnUse">
      <stop
         offset="0"
         stop-color="#39c892"
         id="stop42" />
      <stop
         offset="1"
         stop-color="#98e795"
         id="stop44" />
    </linearGradient>
    <linearGradient
       id="linear-gradient-4"
       x1="354.22"
       y1="472.13"
       x2="771.84998"
       y2="472.13"
       gradientUnits="userSpaceOnUse">
      <stop
         offset="0"
         stop-color="#7bdb35"
         id="stop47" />
      <stop
         offset="0.51"
         stop-color="#9ce765"
         id="stop49" />
      <stop
         offset="0.99"
         stop-color="#bdf396"
         id="stop51" />
    </linearGradient>
    <linearGradient
       id="linear-gradient-5"
       x1="341.04001"
       y1="279.62"
       x2="775.40002"
       y2="279.62"
       gradientUnits="userSpaceOnUse">
      <stop
         offset="0"
         stop-color="#30abae"
         id="stop54" />
      <stop
         offset="1"
         stop-color="#3bc992"
         id="stop56" />
    </linearGradient>
    <radialGradient
       id="radial-gradient"
       cx="541.96002"
       cy="430.22"
       r="61.66"
       gradientUnits="userSpaceOnUse">
      <stop
         offset="0.47"
         stop-color="#69ced1"
         id="stop59" />
      <stop
         offset="1"
         stop-color="#66afd5"
         id="stop61" />
    </radialGradient>
    <linearGradient
       id="linear-gradient-6"
       x1="584.33002"
       y1="444.87"
       x2="584.33002"
       y2="407.60001"
       xlink:href="#linear-gradient-2" />
    <linearGradient
       id="linear-gradient-7"
       x1="430.25"
       y1="401.95001"
       x2="443.66"
       y2="415.35999"
       gradientUnits="userSpaceOnUse">
      <stop
         offset="0"
         stop-color="#fff"
         id="stop65" />
      <stop
         offset="0"
         stop-color="#fdd658"
         id="stop67" />
      <stop
         offset="0.99"
         stop-color="#ffe283"
         id="stop69" />
    </linearGradient>
    <linearGradient
       id="linear-gradient-8"
       x1="455.98999"
       y1="418.13"
       x2="476.14999"
       y2="418.13"
       gradientUnits="userSpaceOnUse">
      <stop
         offset="0"
         stop-color="#fff"
         id="stop72" />
      <stop
         offset="0"
         stop-color="#feda67"
         id="stop74" />
      <stop
         offset="0.99"
         stop-color="#ffe283"
         id="stop76" />
    </linearGradient>
    <linearGradient
       id="linear-gradient-9"
       x1="453.04001"
       y1="386.92999"
       x2="453.04001"
       y2="439.67999"
       gradientUnits="userSpaceOnUse">
      <stop
         offset="0"
         stop-color="#fff"
         id="stop79" />
      <stop
         offset="0"
         stop-color="#fdd659"
         id="stop81" />
      <stop
         offset="0.51"
         stop-color="#fedc89"
         id="stop83" />
      <stop
         offset="0.99"
         stop-color="#ffe2ba"
         id="stop85" />
    </linearGradient>
    <linearGradient
       id="linear-gradient-10"
       x1="621.46997"
       y1="381.07999"
       x2="637.33002"
       y2="396.92999"
       gradientTransform="rotate(8.06,548.2204,538.1538)"
       xlink:href="#linear-gradient-7" />
    <linearGradient
       id="linear-gradient-11"
       x1="651.13"
       y1="394.85001"
       x2="674.96002"
       y2="394.85001"
       gradientTransform="rotate(8.06,548.2204,538.1538)"
       xlink:href="#linear-gradient-7" />
    <linearGradient
       id="linear-gradient-12"
       x1="647.65002"
       y1="357.98001"
       x2="647.65002"
       y2="420.32001"
       gradientTransform="rotate(8.06,548.2204,538.1538)"
       gradientUnits="userSpaceOnUse">
      <stop
         offset="0"
         stop-color="#fff"
         id="stop90" />
      <stop
         offset="0"
         stop-color="#fdc70e"
         id="stop92" />
      <stop
         offset="0.3"
         stop-color="#fecf3e"
         id="stop94" />
      <stop
         offset="0.97"
         stop-color="#ffe2b7"
         id="stop96" />
      <stop
         offset="0.99"
         stop-color="#ffe2ba"
         id="stop98" />
    </linearGradient>
    <linearGradient
       id="linear-gradient-13"
       x1="564"
       y1="231.78999"
       x2="675.88"
       y2="231.78999"
       xlink:href="#linear-gradient" />
    <linearGradient
       id="linear-gradient-14"
       x1="555.98999"
       y1="134.44"
       x2="610.26001"
       y2="188.71001"
       xlink:href="#linear-gradient-4" />
    <clipPath
       id="clip-path">
      <path
         class="cls-1"
         d="M 592.05,206.92 H 555.3 c -10.79,-28.87 -41.28,-24.19 -17.84,-90.69 h 36.74 c -23.43,66.5 7.05,61.82 17.85,90.69 z"
         id="path103"
         inkscape:connector-curvature="0"
         style="fill:url(#linear-gradient)" />
    </clipPath>
    <linearGradient
       id="linear-gradient-16"
       x1="601.79999"
       y1="198.03999"
       x2="529.28003"
       y2="125.51"
       xlink:href="#linear-gradient" />
    <clipPath
       id="clip-path-2">
      <path
         class="cls-2"
         d="M 602.69,407.68 H 565.94 C 513.61,317.41 458.45,390.88 437.45,194.2 h 36.75 c 20.99,196.68 76.16,123.21 128.49,213.48 z"
         id="path107"
         inkscape:connector-curvature="0"
         style="fill:url(#linear-gradient-2)" />
    </clipPath>
    <linearGradient
       id="linear-gradient-19"
       x1="505.91"
       y1="162.56"
       x2="698.39001"
       y2="355.04001"
       gradientUnits="userSpaceOnUse">
      <stop
         offset="0"
         stop-color="#7bdb35"
         id="stop110" />
      <stop
         offset="0.43"
         stop-color="#96e55d"
         id="stop112" />
      <stop
         offset="0.99"
         stop-color="#bdf396"
         id="stop114" />
    </linearGradient>
    <linearGradient
       id="linear-gradient-20"
       x1="681.10999"
       y1="289.95001"
       x2="764.90997"
       y2="289.95001"
       xlink:href="#linear-gradient-4" />
    <linearGradient
       id="linear-gradient-21"
       x1="608.34998"
       y1="426.10999"
       x2="771.84998"
       y2="426.10999"
       gradientUnits="userSpaceOnUse">
      <stop
         offset="0"
         stop-color="#7bdb35"
         id="stop118" />
      <stop
         offset="0"
         stop-color="#9ce665"
         id="stop120" />
      <stop
         offset="0"
         stop-color="#b8f08e"
         id="stop122" />
      <stop
         offset="0.42"
         stop-color="#b5ee89"
         id="stop124" />
      <stop
         offset="1"
         stop-color="#71cc25"
         id="stop126" />
    </linearGradient>
    <linearGradient
       id="linear-gradient-22"
       x1="320.62"
       y1="241.64999"
       x2="425.54001"
       y2="241.64999"
       xlink:href="#linear-gradient-4" />
    <linearGradient
       id="linear-gradient-23"
       x1="355.98999"
       y1="411.10001"
       x2="601.59003"
       y2="448.73999"
       xlink:href="#linear-gradient-4" />
    <linearGradient
       id="linear-gradient-24"
       x1="637.91998"
       y1="433.75"
       x2="737.96997"
       y2="433.75"
       gradientUnits="userSpaceOnUse">
      <stop
         offset="0"
         stop-color="#fff"
         id="stop131" />
      <stop
         offset="0"
         stop-color="#666"
         id="stop133" />
      <stop
         offset="1"
         stop-color="gray"
         id="stop135" />
      <stop
         offset="1"
         stop-color="#a176a1"
         id="stop137" />
    </linearGradient>
    <linearGradient
       id="linear-gradient-25"
       x1="679.41998"
       y1="415.79001"
       x2="686.57001"
       y2="428.17001"
       gradientUnits="userSpaceOnUse">
      <stop
         offset="0"
         stop-color="#ffa946"
         id="stop140" />
      <stop
         offset="0.29"
         stop-color="#ffc767"
         id="stop142" />
    </linearGradient>
    <linearGradient
       id="linear-gradient-26"
       x1="616.10999"
       y1="379.37"
       x2="629.62"
       y2="379.37"
       gradientUnits="userSpaceOnUse">
      <stop
         offset="0"
         stop-color="#fff"
         id="stop145" />
      <stop
         offset="0"
         stop-color="#ffe283"
         id="stop147" />
      <stop
         offset="1"
         stop-color="#ffcd85"
         id="stop149" />
    </linearGradient>
    <linearGradient
       id="linear-gradient-27"
       x1="619.96997"
       y1="357.04001"
       x2="632.90997"
       y2="379.45999"
       gradientUnits="userSpaceOnUse">
      <stop
         offset="0"
         stop-color="#fff"
         id="stop152" />
      <stop
         offset="0"
         stop-color="#fdd658"
         id="stop154" />
      <stop
         offset="1"
         stop-color="#ffe283"
         id="stop156" />
    </linearGradient>
    <linearGradient
       id="linear-gradient-28"
       x1="616.10999"
       y1="381.35999"
       x2="628.35999"
       y2="381.35999"
       gradientUnits="userSpaceOnUse">
      <stop
         offset="0"
         stop-color="#fff"
         id="stop159" />
      <stop
         offset="0"
         stop-color="#ffa946"
         id="stop161" />
    </linearGradient>
    <radialGradient
       id="radial-gradient-2"
       cx="631.47998"
       cy="416.22"
       r="25.93"
       xlink:href="#radial-gradient" />
    <linearGradient
       id="linear-gradient-29"
       x1="614.96002"
       y1="386.82001"
       x2="630.53998"
       y2="386.82001"
       gradientUnits="userSpaceOnUse">
      <stop
         offset="0.33"
         stop-color="#c2d8d8"
         id="stop165" />
      <stop
         offset="1"
         stop-color="#e7eded"
         id="stop167" />
    </linearGradient>
    <linearGradient
       id="linear-gradient-30"
       x1="608.56"
       y1="411.29999"
       x2="677.85999"
       y2="411.29999"
       xlink:href="#linear-gradient-29" />
    <linearGradient
       id="linear-gradient-31"
       x1="704.53003"
       y1="378.04999"
       x2="690.91998"
       y2="370.19"
       gradientTransform="rotate(3.86,590.11094,509.38765)"
       xlink:href="#linear-gradient-4" />
    <linearGradient
       id="linear-gradient-32"
       x1="626.92999"
       y1="348.89001"
       x2="613.32001"
       y2="341.04001"
       gradientTransform="rotate(38.81,617.03932,515.93237)"
       xlink:href="#linear-gradient-4" />
    <linearGradient
       id="linear-gradient-33"
       x1="708.67999"
       y1="385.92001"
       x2="708.67999"
       y2="380.62"
       gradientTransform="matrix(1,-0.02,0.02,1,-8.17,9.69)"
       gradientUnits="userSpaceOnUse">
      <stop
         offset="0"
         stop-color="#fff"
         id="stop173" />
      <stop
         offset="0"
         stop-color="#252525"
         id="stop175" />
    </linearGradient>
    <linearGradient
       id="linear-gradient-34"
       x1="708.73999"
       y1="385.84"
       x2="708.73999"
       y2="380.54001"
       gradientTransform="matrix(1,-0.02,0.02,1,-8.17,9.69)"
       gradientUnits="userSpaceOnUse">
      <stop
         offset="0"
         stop-color="#fff"
         id="stop178" />
      <stop
         offset="1"
         stop-color="#e6e6e6"
         id="stop180" />
    </linearGradient>
    <linearGradient
       id="linear-gradient-35"
       x1="667.94"
       y1="357.64001"
       x2="669.41998"
       y2="357.64001"
       gradientTransform="matrix(0.93,0.38,-0.38,0.93,243.15,-197.97)"
       xlink:href="#linear-gradient-33" />
    <linearGradient
       id="linear-gradient-36"
       x1="667.94"
       y1="358.51001"
       x2="669.41998"
       y2="358.51001"
       gradientTransform="matrix(0.93,0.38,-0.38,0.93,243.15,-197.97)"
       xlink:href="#linear-gradient-33" />
    <linearGradient
       id="linear-gradient-37"
       x1="666.28003"
       y1="355.47"
       x2="671.07001"
       y2="355.47"
       gradientTransform="matrix(0.93,0.38,-0.38,0.93,243.15,-197.97)"
       xlink:href="#linear-gradient-33" />
    <linearGradient
       id="linear-gradient-38"
       x1="667.90002"
       y1="357.57999"
       x2="669.38"
       y2="357.57999"
       gradientTransform="matrix(0.93,0.38,-0.38,0.93,243.15,-197.97)"
       xlink:href="#linear-gradient-34" />
    <linearGradient
       id="linear-gradient-39"
       x1="667.90002"
       y1="358.45001"
       x2="669.38"
       y2="358.45001"
       gradientTransform="matrix(0.93,0.38,-0.38,0.93,243.15,-197.97)"
       xlink:href="#linear-gradient-34" />
    <linearGradient
       id="linear-gradient-40"
       x1="666.23999"
       y1="355.39999"
       x2="671.03003"
       y2="355.39999"
       gradientTransform="matrix(0.93,0.38,-0.38,0.93,243.15,-197.97)"
       xlink:href="#linear-gradient-34" />
    <linearGradient
       id="linear-gradient-41"
       x1="737.96997"
       y1="441.38"
       x2="738.84003"
       y2="441.38"
       xlink:href="#linear-gradient-27" />
    <linearGradient
       inkscape:collect="always"
       xlink:href="#linear-gradient-4"
       id="linearGradient1100"
       gradientUnits="userSpaceOnUse"
       x1="354.22"
       y1="472.13"
       x2="771.84998"
       y2="472.13" />
    <radialGradient
       inkscape:collect="always"
       xlink:href="#radial-gradient"
       id="radialGradient1102"
       gradientUnits="userSpaceOnUse"
       cx="541.96002"
       cy="430.22"
       r="61.66" />
    <linearGradient
       inkscape:collect="always"
       xlink:href="#linear-gradient-7"
       id="linearGradient1104"
       gradientUnits="userSpaceOnUse"
       x1="430.25"
       y1="401.95001"
       x2="443.66"
       y2="415.35999" />
    <linearGradient
       inkscape:collect="always"
       xlink:href="#linear-gradient"
       id="linearGradient1106"
       gradientUnits="userSpaceOnUse"
       x1="528.82001"
       y1="161.57001"
       x2="592.04999"
       y2="161.57001" />
    <linearGradient
       inkscape:collect="always"
       xlink:href="#linear-gradient-2"
       id="linearGradient1108"
       gradientUnits="userSpaceOnUse"
       x1="438.25"
       y1="193.74001"
       x2="571.98999"
       y2="425.39999" />
    <linearGradient
       inkscape:collect="always"
       xlink:href="#linear-gradient-2"
       id="linearGradient1110"
       gradientUnits="userSpaceOnUse"
       x1="438.25"
       y1="193.74001"
       x2="571.98999"
       y2="425.39999" />
    <linearGradient
       inkscape:collect="always"
       xlink:href="#linear-gradient-27"
       id="linearGradient1112"
       gradientUnits="userSpaceOnUse"
       x1="619.96997"
       y1="357.04001"
       x2="632.90997"
       y2="379.45999" />
    <linearGradient
       inkscape:collect="always"
       xlink:href="#linear-gradient-29"
       id="linearGradient1114"
       gradientUnits="userSpaceOnUse"
       x1="614.96002"
       y1="386.82001"
       x2="630.53998"
       y2="386.82001" />
    <linearGradient
       inkscape:collect="always"
       xlink:href="#linear-gradient-33"
       id="linearGradient1116"
       gradientUnits="userSpaceOnUse"
       gradientTransform="matrix(1,-0.02,0.02,1,-8.17,9.69)"
       x1="708.67999"
       y1="385.92001"
       x2="708.67999"
       y2="380.62" />
    <linearGradient
       inkscape:collect="always"
       xlink:href="#linear-gradient-34"
       id="linearGradient1118"
       gradientUnits="userSpaceOnUse"
       gradientTransform="matrix(1,-0.02,0.02,1,-8.17,9.69)"
       x1="708.73999"
       y1="385.84"
       x2="708.73999"
       y2="380.54001" />
  </defs>
  <title
     id="title192">BGFINAL</title>
  <g
     data-name="Layer 4"
     id="Layer_4"
     transform="matrix(1.2086021,0,0,1.2086021,372.85457,-0.19155904)">
    <path
       inkscape:connector-curvature="0"
       style="fill:url(#linear-gradient-3)"
       d="m 0,0 c 0,0 20.42,81.65 50.65,113.36 33,34.57 79.59,54.67 180.89,63.51 101.3,8.84 189.15,45.13 191.13,126.05 2.47,100.83 -24.84,156 108.73,241.9 98.42,63.27 291.15,50.64 291.15,50.64 l 0.33,-595 z"
       class="cls-3"
       id="path1162" />
  </g>
  <g
     id="g1228"
     transform="matrix(1.2407714,0,0,1.2407714,317.2428,24.192687)">
    <g
       id="Layer_2-2"
       data-name="Layer 2">
      <path
         class="cls-4"
         d="m 354.22,444.75 h 417.63 c 0,0 -21.77,24.13 -79.35,21 -57.58,-3.13 -98.86,27.05 -98.86,27.05 0,0 -30.18,23.94 -87.06,-18.73 -56.88,-42.67 -118.29,-15.61 -118.29,-15.61 0,0 -29.99,8.63 -34.07,-13.71 z"
         id="path196"
         style="fill:url(#linearGradient1100)"
         inkscape:connector-curvature="0" />
      <path
         class="cls-5"
         d="m 354.22,444.75 h 417.63 c 0,0 18.33,-43.59 -28.35,-79.4 -42.41,-32.53 -27.78,-64.52 -27.78,-64.52 0,0 20,-47.83 -21.66,-61.2 -37.11,-11.9 -20.84,-37.6 -17.49,-44.41 0.56,-1.14 0.56,-5 0.82,-6.26 2.13,-10.29 -5.59,-86.5 -90.54,-72.84 -63.87,10.27 -56.18,80.76 -55.07,89 a 8.86,8.86 0 0 0 0.29,1.26 c 1,3.25 4,21.66 -54.1,27.23 -62.12,6 -43.89,63.41 -43.89,63.41 0,0 38.92,68.88 -43.88,78.25 -82.8,9.37 -35.98,69.48 -35.98,69.48 z"
         id="path198"
         style="isolation:isolate;fill:url(#linear-gradient-5)"
         inkscape:connector-curvature="0" />
      <path
         class="cls-6"
         d="m 456,444.75 c 0,0 30.23,-22.68 51.14,-15.59 0,0 28.34,13.81 43.93,-5 0,0 23,-19.13 50.66,0 l 26.22,20.55 z"
         id="path200"
         style="isolation:isolate;fill:url(#radialGradient1102)"
         inkscape:connector-curvature="0" />
      <rect
         class="cls-7"
         x="565.96002"
         y="407.60001"
         width="36.740002"
         height="37.27"
         id="rect202"
         style="fill:url(#linear-gradient-6)" />
      <path
         class="cls-8"
         d="m 433.38,398.82 c 0,0 12.95,2.58 13,23.61 0.02,0 -16.83,-1.54 -13,-23.61 z"
         id="path204"
         style="isolation:isolate;fill:url(#linearGradient1104)"
         inkscape:connector-curvature="0" />
      <path
         class="cls-9"
         d="m 473.47,419.55 c 0,0 6.66,-11.21 -1,-19 0,0 1,5.54 -14.53,16.91 0,0 -5.23,4.42 1.52,18.22 z"
         id="path206"
         style="isolation:isolate;fill:url(#linear-gradient-8)"
         inkscape:connector-curvature="0" />
      <path
         class="cls-10"
         d="m 452.57,386.93 c 0,0 20.6,5.93 1.87,40.82 0,0 -1.31,1.36 0.18,11.93 0,0 -15.65,-11.92 -9.35,-23.57 0,0 11.73,-8.94 7.3,-29.18 z"
         id="path208"
         style="isolation:isolate;fill:url(#linear-gradient-9)"
         inkscape:connector-curvature="0" />
      <path
         class="cls-11"
         d="m 646.94,389.77 c 0,0 14.73,5.17 11.32,29.79 0,0 -19.45,-4.56 -11.32,-29.79 z"
         id="path210"
         style="isolation:isolate;fill:url(#linear-gradient-10)"
         inkscape:connector-curvature="0" />
      <path
         class="cls-12"
         d="m 690.42,415.27 c 0,0 9.65,-12 2,-22.4 0,0 0.29,6.66 -19.8,17.38 0,0 -6.86,4.31 -1.25,21.58 z"
         id="path212"
         style="isolation:isolate;fill:url(#linear-gradient-11)"
         inkscape:connector-curvature="0" />
      <path
         class="cls-13"
         d="m 671.36,373.63 c 0,0 23.13,10.36 -4.57,48.08 0,0 -1.75,1.37 -1.77,14 0,0 -16.33,-16.54 -7,-29.12 -0.02,-0.02 15.15,-8.54 13.34,-32.96 z"
         id="path214"
         style="isolation:isolate;fill:url(#linear-gradient-12)"
         inkscape:connector-curvature="0" />
      <path
         class="cls-14"
         d="m 668.73,157.72 c 0.2,-0.26 0.42,-0.51 0.63,-0.77 0.74,-0.95 1.47,-1.94 2.19,-3 0.15,-0.21 0.29,-0.44 0.44,-0.66 0.56,-0.81 1.11,-1.64 1.65,-2.5 0.25,-0.39 0.48,-0.81 0.72,-1.21 0.35,-0.57 0.7,-1.13 1,-1.72 0.17,-0.29 0.33,-0.59 0.49,-0.88 h -36.72 c -0.49,0.9 -1,1.74 -1.51,2.6 l -0.72,1.21 q -0.81,1.28 -1.65,2.49 c -0.15,0.22 -0.29,0.46 -0.45,0.68 -0.71,1 -1.44,2 -2.19,2.95 l -0.63,0.77 c -0.55,0.68 -1.09,1.34 -1.65,2 -0.29,0.34 -0.59,0.66 -0.88,1 l -1.45,1.6 -1,1 c -0.47,0.48 -1,0.95 -1.43,1.41 l -1,1 -1.45,1.3 -1.06,0.91 -1.53,1.27 -0.94,0.75 c -0.57,0.44 -1.14,0.88 -1.72,1.31 l -0.81,0.61 c -0.77,0.57 -1.55,1.12 -2.33,1.66 l -0.21,0.15 c -0.86,0.6 -1.72,1.18 -2.58,1.75 l -0.85,0.55 -1.76,1.13 -1,0.64 -1.63,1 -1.06,0.65 -1.69,1 -1.14,0.7 c -0.71,0.42 -1.41,0.85 -2.11,1.28 l -2.16,1.31 -0.49,0.3 -2.48,1.55 -0.73,0.47 -1.73,1.12 -0.91,0.61 -1.53,1 -0.94,0.66 c -0.49,0.35 -1,0.7 -1.46,1.06 l -0.91,0.68 c -0.51,0.38 -1,0.77 -1.49,1.17 L 585,193 a 2.11,2.11 0 0 0 -0.23,0.19 q -1,0.78 -1.89,1.62 l -0.31,0.29 c -0.59,0.53 -1.17,1.08 -1.74,1.64 l -0.63,0.64 c -0.48,0.47 -0.94,1 -1.4,1.46 -0.2,0.23 -0.41,0.45 -0.61,0.67 -0.57,0.65 -1.13,1.3 -1.67,2 l -0.19,0.24 c -0.6,0.75 -1.18,1.54 -1.74,2.35 l -0.48,0.71 c -0.41,0.61 -0.8,1.22 -1.19,1.85 l -0.51,0.86 c -0.12,0.2 -0.25,0.4 -0.37,0.61 -0.35,0.63 -0.69,1.26 -1,1.92 l -0.14,0.28 q -0.68,1.35 -1.29,2.79 c -0.05,0.12 -0.11,0.23 -0.16,0.35 -0.41,1 -0.8,2 -1.18,3.06 l -0.21,0.6 c -0.36,1.06 -0.7,2.14 -1,3.26 l -0.15,0.57 c -0.33,1.19 -0.63,2.4 -0.91,3.67 -2.48,11.51 -2.74,26.43 0,46.49 v 45.48 h 36.75 v -45.52 c -2.74,-20.06 -2.49,-35 0,-46.49 0.27,-1.27 0.58,-2.48 0.9,-3.67 0,-0.19 0.1,-0.38 0.16,-0.57 0.31,-1.12 0.65,-2.2 1,-3.26 l 0.22,-0.6 q 0.56,-1.58 1.17,-3.06 c 0.06,-0.12 0.11,-0.24 0.16,-0.36 0.41,-0.95 0.84,-1.88 1.29,-2.77 l 0.15,-0.3 c 0.44,-0.87 0.91,-1.7 1.38,-2.52 l 0.52,-0.86 c 0.38,-0.63 0.78,-1.24 1.18,-1.84 0.16,-0.24 0.32,-0.49 0.48,-0.72 0.57,-0.81 1.14,-1.6 1.74,-2.35 l 0.2,-0.24 c 0.54,-0.68 1.1,-1.34 1.66,-2 0.2,-0.22 0.41,-0.44 0.61,-0.67 0.46,-0.5 0.93,-1 1.4,-1.46 0.21,-0.22 0.42,-0.43 0.64,-0.64 0.57,-0.56 1.15,-1.11 1.74,-1.64 0.1,-0.1 0.2,-0.2 0.31,-0.29 0.69,-0.62 1.4,-1.22 2.12,-1.81 0.26,-0.22 0.53,-0.43 0.8,-0.64 0.49,-0.4 1,-0.79 1.49,-1.17 l 0.92,-0.68 c 0.48,-0.36 1,-0.71 1.46,-1.06 l 0.94,-0.66 c 0.5,-0.35 1,-0.7 1.53,-1 l 0.9,-0.61 1.73,-1.11 0.74,-0.48 2.48,-1.55 0.5,-0.31 2.13,-1.29 2.12,-1.29 1.14,-0.7 1.7,-1 1,-0.65 1.64,-1 1,-0.64 q 0.88,-0.56 1.77,-1.14 l 0.84,-0.54 c 0.87,-0.57 1.73,-1.15 2.58,-1.75 l 0.22,-0.15 c 0.78,-0.54 1.55,-1.09 2.32,-1.66 l 0.83,-0.62 1.7,-1.3 0.94,-0.76 0.92,-0.73 0.61,-0.53 1.07,-0.91 1.44,-1.3 c 0.35,-0.32 0.7,-0.64 1,-1 l 1.44,-1.41 c 0.33,-0.33 0.66,-0.66 1,-1 0.5,-0.52 1,-1.05 1.47,-1.59 0.3,-0.33 0.6,-0.65 0.89,-1 0.6,-0.67 1.14,-1.34 1.69,-2.01 z"
         id="path216"
         style="fill:url(#linear-gradient-13)"
         inkscape:connector-curvature="0" />
      <path
         class="cls-15"
         d="m 592.05,206.92 c -10.8,-28.87 -41.28,-24.19 -17.85,-90.69 14.5,37.1 37.42,44.27 17.85,90.69 z"
         id="path218"
         style="fill:url(#linear-gradient-14)"
         inkscape:connector-curvature="0" />
      <path
         class="cls-1"
         d="M 592.05,206.92 H 555.3 c -10.79,-28.87 -41.28,-24.19 -17.84,-90.69 h 36.74 c -23.43,66.5 7.05,61.82 17.85,90.69 z"
         id="path220"
         style="fill:url(#linearGradient1106)"
         inkscape:connector-curvature="0" />
      <g
         class="cls-16"
         clip-path="url(#clip-path)"
         id="g226">
        <g
           class="cls-17"
           id="g224"
           style="isolation:isolate">
          <path
             class="cls-18"
             d="m 592.92,206.92 h -36.2 a 0.8,0.8 0 0 1 -0.74,-0.51 C 545.05,178.18 515.2,182.32 538.14,116.77 a 0.81,0.81 0 0 1 0.76,-0.54 H 574 a 0.79,0.79 0 0 1 0.74,1.06 c -22.73,65.39 7.49,60.91 18.22,89.63"
             id="path222"
             style="fill:url(#linear-gradient-16)"
             inkscape:connector-curvature="0" />
        </g>
      </g>
      <g
         class="cls-17"
         id="g236"
         style="isolation:isolate">
        <path
           class="cls-2"
           d="M 602.69,407.68 H 565.94 C 513.61,317.41 458.45,390.88 437.45,194.2 h 36.75 c 20.99,196.68 76.16,123.21 128.49,213.48 z"
           id="path228"
           style="fill:url(#linearGradient1108)"
           inkscape:connector-curvature="0" />
        <g
           class="cls-19"
           clip-path="url(#clip-path-2)"
           id="g234">
          <g
             class="cls-17"
             id="g232"
             style="isolation:isolate">
            <path
               class="cls-2"
               d="M 602.69,407.68 H 565.94 C 513.61,317.41 458.45,390.88 437.45,194.2 h 36.75 c 21,196.68 76.16,123.21 128.49,213.48"
               id="path230"
               style="fill:url(#linearGradient1110)"
               inkscape:connector-curvature="0" />
          </g>
        </g>
      </g>
      <g
         class="cls-17"
         id="g240"
         style="isolation:isolate">
        <path
           class="cls-20"
           d="m 675.88,147 c 13.72,96.9 -40.91,96.21 -67.32,126.86 v 171 h -5.85 v -36.61 c -52.33,-90.5 -107.5,-16.84 -128.49,-214 50.11,63.12 110,55.9 128.49,122.74 v -45.6 c -2.74,-20.11 -2.49,-35.07 0,-46.61 9.61,-44.68 51.49,-37.99 73.17,-77.78 z"
           id="path238"
           style="fill:url(#linear-gradient-19)"
           inkscape:connector-curvature="0" />
      </g>
      <path
         class="cls-21"
         d="m 681.11,310.39 h 83.8 c 0,0 -2.28,-8.86 -26.84,-13.42 0,0 -12.51,-4.84 -13.33,-16.71 0,0 -4.47,-31.86 -17.89,14.15 a 18.52,18.52 0 0 1 -12.05,7.94 c 0,0 -11.87,1.55 -13.69,8.04 z"
         id="path242"
         style="fill:url(#linear-gradient-20)"
         inkscape:connector-curvature="0" />
      <path
         class="cls-22"
         d="m 669.86,407.53 c 4.07,-0.53 11.77,2.64 22.71,18 a 4.82,4.82 0 0 0 1.56,1.42 28,28 0 0 0 30.73,-2.23 c 16.45,-12 38.3,19 47,20 H 608.35 c 0,0 16.7,-5.87 24,-16.78 0.05,0.06 12.7,-17.15 37.51,-20.41 z"
         id="path244"
         style="fill:url(#linear-gradient-21)"
         inkscape:connector-curvature="0" />
      <path
         class="cls-23"
         d="m 320.62,260.84 h 104.92 c 0,0 -1.81,-11.24 -24.1,-10.15 0,0 -7.93,0.41 -14,-13.5 -6.07,-13.91 -14.32,-14.72 -14.32,-14.72 0,0 -11.24,0.22 -14.34,12.76 -2.91,11.59 -24.78,15.82 -24.78,15.82 0,0 -10.77,1.52 -13.38,9.79 z"
         id="path246"
         style="fill:url(#linear-gradient-22)"
         inkscape:connector-curvature="0" />
      <path
         class="cls-24"
         d="m 354.22,444.75 h 248.47 c 0,0 -30.17,-1.92 -82.28,-40.32 0,0 -22.22,-15.46 -45.5,15.41 l -0.17,0.2 c -1.17,1.21 -12.88,11.72 -53.06,-8.75 0,0 -30.68,-12.89 -67.46,33.46 z"
         id="path248"
         style="fill:url(#linear-gradient-23)"
         inkscape:connector-curvature="0" />
    </g>
    <g
       id="Layer_3"
       data-name="Layer 3">
      <path
         id="KakiKiri"
         class="cls-25"
         d="m 741.35,433.27 c 0,0 1.84,-0.64 0.74,0.89 l -4.94,7.92 c 0,0 -0.64,0.62 -1.18,0.38 l -3.38,-1.46 1,-3.5 h 1.05 c 0,0 5.69,-3.95 6.71,-4.23 z"
         inkscape:connector-curvature="0"
         style="fill:#1c1b1b" />
      <path
         id="KakiKanan"
         class="cls-25"
         d="m 745.38,432.63 c 0,0 2,-1.15 1,0.92 l -4.25,10.57 c 0,0 -0.63,0.87 -1.33,0.69 l -4.27,-1 0.43,-4.4 1.24,-0.2 0.34,-0.34 c 1.33,-1.32 5.85,-5.77 6.84,-6.24 z"
         inkscape:connector-curvature="0"
         style="fill:#1c1b1b" />
      <path
         id="Kaki"
         class="cls-26"
         d="m 738,438.58 v 6 a 0.16,0.16 0 0 1 -0.16,0.17 20.49,20.49 0 0 1 -3.85,-0.56 c 0,0 -39,-5.72 -40.59,-6.54 a 0.09,0.09 0 0 0 -0.09,0 c -1.39,0.35 -28.55,7.22 -29.57,7.12 0,0 -25.79,0.27 -25.79,0 0,-0.27 12.54,-14.4 13.3,-15.25 a 0.14,0.14 0 0 1 0.08,0 c 1.5,-0.27 35.23,-6.36 36.79,-6.85 h 0.09 c 1.65,0.57 46.28,16.08 49.6,15.77 a 0.17,0.17 0 0 1 0.19,0.14 z"
         style="fill:url(#linear-gradient-24)"
         inkscape:connector-curvature="0" />
      <path
         id="Tangan"
         class="cls-27"
         d="m 685.61,424.17 h 4.71 c 0,0 -5.25,-7.24 -5.35,-7.24 -0.1,0 -8.65,1 -8.65,1 l 0.9,4.53 c 0,0 2,0.7 3.18,1 a 13.23,13.23 0 0 1 2.79,-1.2 c 0,0 2.02,0.85 2.42,1.91 z"
         style="fill:url(#linear-gradient-25)"
         inkscape:connector-curvature="0" />
      <path
         id="Leher"
         class="cls-28"
         d="m 616.11,375.32 c 0,0 0.06,9.37 0.51,10 0,0 10.68,0.09 13,-1.12 l -1.34,-10.81 z"
         style="fill:url(#linear-gradient-26)"
         inkscape:connector-curvature="0" />
      <path
         id="Muka"
         class="cls-29"
         d="m 618.78,375.85 c -9.28,-10.26 -0.54,-17.71 -0.54,-17.71 a 12.38,12.38 0 0 1 15,0 12.71,12.71 0 0 1 0,5.94 l 3.56,7.85 c 0,0 1.09,1.09 -2.38,1.73 0,0 -1.18,1.1 -0.64,4.84 -0.03,0 -5.91,7.39 -15,-2.65 z"
         style="fill:url(#linearGradient1112)"
         inkscape:connector-curvature="0" />
      <path
         class="cls-30"
         d="m 616.19,379.92 c 0,0 8.62,7.18 12.17,4.65 v -3.45 l -12.25,-3.5 z"
         id="path257"
         style="fill:url(#linear-gradient-28)"
         inkscape:connector-curvature="0" />
      <path
         id="Badan"
         class="cls-31"
         d="m 631,387.54 c 0,0 15,19.78 15.94,28.79 0,0 6.09,7.58 7.41,11.87 0,0 -11.56,16.06 -16.37,16.7 0,0 -22,-16.17 -29.32,-43.1 0,0 0,-10.82 7.48,-12.44 z"
         style="isolation:isolate;fill:url(#radial-gradient-2)"
         inkscape:connector-curvature="0" />
      <path
         id="Kerah"
         class="cls-32"
         d="m 615.47,384.73 c 1.87,0.13 10,0.63 13.95,-0.39 a 0.41,0.41 0 0 1 0.5,0.28 15.13,15.13 0 0 1 0.62,2.79 0.43,0.43 0 0 1 -0.37,0.46 c -2.06,0.26 -12.34,1.53 -14.23,1.44 a 0.39,0.39 0 0 1 -0.37,-0.28 9,9 0 0 1 -0.56,-3.94 0.42,0.42 0 0 1 0.46,-0.36 z"
         style="isolation:isolate;fill:url(#linearGradient1114)"
         inkscape:connector-curvature="0" />
      <path
         id="Rambut"
         class="cls-25"
         d="m 634.82,348.29 c 0.67,1.15 3.45,6.61 -1.57,10.19 v 0 c -0.13,0.07 -2.47,1.3 -11.91,2.18 h -0.07 a 5.26,5.26 0 0 0 -2.07,5.1 c 0,0 -3.29,-2.19 -2.74,2.1 0,0 0.25,3.82 2.49,2.35 a 0.17,0.17 0 0 1 0.27,0.14 c -0.16,1.4 -0.28,6 5.43,6 v 0 l 9.49,-2.3 a 0.16,0.16 0 0 1 0.21,0.18 35.73,35.73 0 0 0 -0.09,10.68 0.17,0.17 0 0 1 -0.18,0.2 c -1.84,-0.1 -14.93,-1.09 -18.5,-8.39 0,0 -7.3,-18.89 -0.54,-23.64 0,0 4.36,-3 11.2,-0.83 v 0 c 0.63,0.2 5.21,0.76 8.25,-4 a 0.1662077,0.1662077 0 0 1 0.33,0.04 z"
         inkscape:connector-curvature="0"
         style="fill:#1c1b1b" />
      <path
         id="Laptop"
         class="cls-33"
         d="m 674.32,424.17 h 28.16 c 0,0 0.46,1.37 2.6,1.15 a 1.34,1.34 0 0 1 0,1.55 l -30.76,-1.6 z"
         inkscape:connector-curvature="0"
         style="fill:#565656" />
      <path
         id="LaptopLayar"
         class="cls-33"
         d="M 718.59,397.43 703,423.93 c 0,0 1,1.67 2,1.63 l 14.48,-27.71 z"
         inkscape:connector-curvature="0"
         style="fill:#565656" />
      <path
         id="Lengan"
         class="cls-34"
         d="m 641.84,414.67 a 6.4,6.4 0 0 0 4.71,2.1 l 31.09,0.31 0.13,0.82 v 0 a 6.47,6.47 0 0 1 -5.44,7.48 l -26.15,3.89 a 6.44,6.44 0 0 1 -4.1,-0.75 c -6.85,-3.82 -29.63,-16.78 -31.32,-21.2 a 12.26,12.26 0 0 1 -2,-8.75 6.46,6.46 0 0 1 10.24,-4 c 4.19,3.12 9.54,7.35 11.49,9.94 a 6.19,6.19 0 0 0 1.18,1.22 86.66,86.66 0 0 1 10.17,8.94 z"
         style="isolation:isolate;fill:url(#linear-gradient-30)"
         inkscape:connector-curvature="0" />
      <path
         class="cls-35"
         d="m 699.84,378.16 c 2.33,-0.54 8.84,-2 12,-2 a 1.11,1.11 0 0 1 1,0.72 17.41,17.41 0 0 1 1.42,7.06 1.15,1.15 0 0 1 -0.78,1 14.69,14.69 0 0 1 -2.79,0.65 1.15,1.15 0 0 0 -0.94,0.78 l -0.49,1.48 a 1.16,1.16 0 0 1 -2,0.4 l -1.3,-1.47 a 1.17,1.17 0 0 0 -1.18,-0.35 27.58,27.58 0 0 1 -3.14,0.73 1.15,1.15 0 0 1 -1.21,-0.65 16.9,16.9 0 0 1 -1.58,-7.24 1.16,1.16 0 0 1 0.99,-1.11 z"
         id="path265"
         style="fill:url(#linear-gradient-31)"
         inkscape:connector-curvature="0" />
      <path
         class="cls-36"
         d="m 723,378 c 2.23,0.9 8.38,3.44 11,5.24 a 1.15,1.15 0 0 1 0.45,1.2 17.37,17.37 0 0 1 -2.88,6.6 1.17,1.17 0 0 1 -1.23,0.39 14.13,14.13 0 0 1 -2.65,-1.07 1.17,1.17 0 0 0 -1.22,0.1 l -1.25,0.93 a 1.17,1.17 0 0 1 -1.85,-0.8 l -0.22,-2 a 1.16,1.16 0 0 0 -0.77,-1 29.85,29.85 0 0 1 -3,-1.19 1.17,1.17 0 0 1 -0.62,-1.24 17.12,17.12 0 0 1 2.85,-6.83 A 1.17,1.17 0 0 1 723,378 Z"
         id="path267"
         style="fill:url(#linear-gradient-32)"
         inkscape:connector-curvature="0" />
      <path
         class="cls-37"
         d="m 707.37,378.87 a 1.8,1.8 0 0 0 -1.07,0.69 1.84,1.84 0 0 0 -1.26,-0.2 1.78,1.78 0 0 0 -0.54,3.27 l 2.43,1.44 a 0.5,0.5 0 0 0 0.34,0.06 0.52,0.52 0 0 0 0.3,-0.2 l 1.62,-2.29 a 1.78,1.78 0 0 0 -1.82,-2.77 z"
         id="path269"
         style="fill:url(#linearGradient1116)"
         inkscape:connector-curvature="0" />
      <path
         class="cls-38"
         d="m 707.43,378.79 a 1.78,1.78 0 0 1 -2.33,0.49 1.78,1.78 0 0 0 -0.54,3.27 L 707,384 a 0.54,0.54 0 0 0 0.35,0.06 0.49,0.49 0 0 0 0.3,-0.21 l 1.62,-2.29 a 1.8,1.8 0 0 0 0.29,-1.39 1.78,1.78 0 0 0 -2.13,-1.38 z"
         id="path271"
         style="fill:url(#linearGradient1118)"
         inkscape:connector-curvature="0" />
      <path
         class="cls-39"
         d="m 726.57,387.28 c 0,0.08 -0.37,0 -0.74,-0.13 -0.37,-0.13 -0.66,-0.35 -0.63,-0.43 l 0.25,-0.61 1.37,0.56 z"
         id="path273"
         style="fill:url(#linear-gradient-35)"
         inkscape:connector-curvature="0" />
      <path
         class="cls-40"
         d="m 725.74,387.36 c -0.38,-0.15 -0.66,-0.35 -0.62,-0.43 l -0.24,0.57 c 0,0.09 0.25,0.28 0.62,0.44 0.37,0.16 0.72,0.21 0.75,0.13 l 0.24,-0.58 c -0.04,0.09 -0.37,0.03 -0.75,-0.13 z"
         id="path275"
         style="fill:url(#linear-gradient-36)"
         inkscape:connector-curvature="0" />
      <circle
         class="cls-41"
         cx="726.81"
         cy="384.76001"
         r="2.3900001"
         id="circle277"
         style="fill:url(#linear-gradient-37)" />
      <path
         class="cls-42"
         d="m 726.56,387.2 c 0,0.09 -0.37,0 -0.75,-0.13 -0.38,-0.13 -0.66,-0.34 -0.62,-0.43 l 0.25,-0.6 1.37,0.56 z"
         id="path279"
         style="fill:url(#linear-gradient-38)"
         inkscape:connector-curvature="0" />
      <path
         class="cls-43"
         d="m 725.72,387.29 c -0.37,-0.16 -0.65,-0.35 -0.62,-0.43 l -0.24,0.57 c 0,0.08 0.25,0.28 0.63,0.43 0.38,0.15 0.71,0.22 0.75,0.13 l 0.23,-0.57 c -0.03,0.08 -0.37,0.02 -0.75,-0.13 z"
         id="path281"
         style="fill:url(#linear-gradient-39)"
         inkscape:connector-curvature="0" />
      <circle
         class="cls-44"
         cx="726.78998"
         cy="384.67999"
         r="2.3900001"
         id="circle283"
         style="fill:url(#linear-gradient-40)" />
      <polygon
         class="cls-45"
         points="738.84,438.57 737.97,439.34 737.97,444.11 738.31,444.19 "
         id="polygon285"
         style="fill:url(#linear-gradient-41)" />
    </g>
  </g>
</svg>
